<svg width="125" height="108" viewBox="0 0 125 108" fill="none" xmlns="http://www.w3.org/2000/svg">
<g id="Group 39">
<g id="Group 9">
<path id="Path 4" opacity="0.5" fill-rule="evenodd" clip-rule="evenodd" d="M16.5799 35.9915C22.1595 26.587 3.83859 11.6628 39.9391 21.0284C76.0396 30.394 97.1031 13.9769 103.56 13.9769C110.017 13.9769 123.497 22.5973 115.325 52.6526C107.154 82.7078 112.978 96.511 73.8272 86.426C34.6764 76.3409 16.8257 106.132 4.06332 94.0369C-8.69908 81.9415 21.358 68.1494 16.5799 60.401C11.8019 52.6526 11.0004 45.396 16.5799 35.9915Z" fill="#FFF9EF"/>
<path id="Path 4 Copy 2" opacity="0.5" fill-rule="evenodd" clip-rule="evenodd" d="M70.5216 19.0274C78.8664 18.7364 81.3354 1.11316 89.5397 27.7099C97.744 54.3066 116.8 60.9496 119.36 65.0271C121.92 69.1046 121.642 81.1144 98.8033 88.1444C75.9642 95.1743 69.2721 104.451 60.3277 75.6364C51.3833 46.8216 24.8793 47.6323 27.7073 34.6666C30.5353 21.701 51.4452 35.0883 54.6038 28.9281C57.7625 22.7679 62.1768 19.3184 70.5216 19.0274Z" fill="#FFF9EF"/>
<path id="Path 4 Copy" opacity="0.5" fill-rule="evenodd" clip-rule="evenodd" d="M88.4935 34.3616C92.594 40.8661 107.89 36.0361 90.3341 52.7852C72.7786 69.5343 76.2746 87.2026 74.1865 90.8027C72.0983 94.4028 62.326 98.8087 46.0976 83.4072C29.8692 68.0057 19.3188 66.2725 38.3125 48.0823C57.3063 29.892 44.3737 9.18915 56.0956 6.43769C67.8176 3.68624 66.7568 25.4219 73.1672 25.5537C79.5775 25.6856 84.393 27.8571 88.4935 34.3616Z" fill="#FFF9EF"/>
</g>
<g id="Group 38">
<path id="Fill 1" fill-rule="evenodd" clip-rule="evenodd" d="M28.8803 58.9769H44.8803V45.9769H28.8803V58.9769Z" fill="#F8D7BC"/>
<path id="Fill 2" fill-rule="evenodd" clip-rule="evenodd" d="M26.8803 44.9769V46.0118H45.8588V59.0074H26.8803V59.9769H99.8803V44.9769H26.8803Z" fill="#4E53BA"/>
<g id="Group 37">
<path id="Fill 3" fill-rule="evenodd" clip-rule="evenodd" d="M11.092 60.6214H64.4289C70.1283 60.6214 74.7822 65.2692 74.7822 70.961V71.6811C74.7822 77.373 70.1944 82.0209 64.4952 82.0209H11.092V60.6214Z" fill="#F8ECE2"/>
<g id="Group 7">
<mask id="mask0_5_7511" style="mask-type:luminance" maskUnits="userSpaceOnUse" x="7" y="59" width="108" height="25">
<path id="Clip 6" fill-rule="evenodd" clip-rule="evenodd" d="M7.88031 59.2472H114.819V83.2632H7.88031V59.2472Z" fill="white"/>
</mask>
<g mask="url(#mask0_5_7511)">
<path id="Fill 5" fill-rule="evenodd" clip-rule="evenodd" d="M104.138 59.2472H8.53522C8.14156 59.2472 7.88025 59.5082 7.88025 59.9013C7.88025 60.2945 8.14156 60.5554 8.53522 60.5554H64.1016C69.9991 60.5554 74.7822 65.3321 74.7822 71.2222C74.7822 77.1121 70.0652 81.8889 64.1676 81.9549H64.1016H8.53522C8.14156 81.9549 7.88025 82.2159 7.88025 82.609C7.88025 83.002 8.14156 83.2632 8.53522 83.2632H104.138C110.036 83.2632 114.819 78.4863 114.819 72.5964V69.9799C114.819 64.09 110.036 59.3132 104.138 59.2472C104.138 59.3132 104.138 59.3132 104.138 59.2472Z" fill="#FF5856"/>
</g>
</g>
<path id="Fill 8" fill-rule="evenodd" clip-rule="evenodd" d="M66.1325 65.2032H11.092V64.4831H66.1325C66.3277 64.4831 66.5262 64.6781 66.5262 64.8762C66.5262 65.0742 66.3277 65.2032 66.1325 65.2032Z" fill="#EBD0BE"/>
<path id="Fill 10" fill-rule="evenodd" clip-rule="evenodd" d="M40.7093 55.1245H28.0608V54.4044H40.7722C40.9675 54.4044 41.1659 54.5994 41.1659 54.7976C41.103 54.9955 40.9046 55.1245 40.7093 55.1245Z" fill="#E0C1A6"/>
<path id="Fill 12" fill-rule="evenodd" clip-rule="evenodd" d="M37.696 51.0019H28.0608V50.2817H37.7589C37.9541 50.2817 38.1525 50.4137 38.1525 50.6749C38.0865 50.8069 37.9573 51.0019 37.696 51.0019Z" fill="#E0C1A6"/>
<path id="Fill 14" fill-rule="evenodd" clip-rule="evenodd" d="M70.1283 73.5145H11.092V72.7944H70.1315C70.3267 72.7944 70.5252 72.9894 70.5252 73.1874C70.522 73.3824 70.3267 73.5145 70.1283 73.5145Z" fill="#EBD0BE"/>
<path id="Fill 16" fill-rule="evenodd" clip-rule="evenodd" d="M62.8578 78.1624H11.092V77.3763H62.8578C63.0531 77.3763 63.2515 77.5083 63.2515 77.7032C63.2483 77.9642 63.0531 78.0964 62.8578 78.1624Z" fill="#EBD0BE"/>
<path id="Fill 18" fill-rule="evenodd" clip-rule="evenodd" d="M68.3619 69.4579H11.0921V68.7378H68.3619C68.5571 68.7378 68.7555 68.9328 68.7555 69.1309C68.6892 69.2597 68.5571 69.4579 68.3619 69.4579Z" fill="#EBD0BE"/>
<path id="Fill 20" fill-rule="evenodd" clip-rule="evenodd" d="M60.8174 42.8823H39.3901V34.9641H60.8174C62.0611 34.9641 63.0467 35.9451 63.0467 37.1904V40.7252C63.0467 41.9012 62.0643 42.8823 60.8174 42.8823Z" fill="#F8D0B3"/>
<path id="Fill 22" fill-rule="evenodd" clip-rule="evenodd" d="M102.57 33.7879H37.567C37.2394 33.7879 36.9781 34.0489 36.9781 34.3761C36.9781 34.703 37.2394 34.964 37.567 34.964H60.8301C62.0738 34.964 63.0593 35.9451 63.0593 37.1905V40.6591C63.0593 41.9012 62.077 42.8855 60.8301 42.8855H37.6991C37.3718 42.9514 37.1102 43.2124 37.1765 43.5396C37.1765 43.8005 37.4378 44.0615 37.6991 44.0615H102.57C103.814 44.0615 104.799 43.0804 104.799 41.8352V35.9451C104.796 34.898 103.748 33.7879 102.57 33.7879Z" fill="#FF7A82"/>
<path id="Fill 24" fill-rule="evenodd" clip-rule="evenodd" d="M35.9295 25.6055H70.8556C72.8866 25.6055 74.59 27.2407 74.59 29.3351V29.596C74.59 31.6244 72.9527 33.3256 70.8556 33.3256H35.9295V25.6055Z" fill="#F8E7D8"/>
<g id="Group 28">
<mask id="mask1_5_7511" style="mask-type:luminance" maskUnits="userSpaceOnUse" x="34" y="25" width="66" height="9">
<path id="Clip 27" fill-rule="evenodd" clip-rule="evenodd" d="M34.16 25.0836H99.4875V33.8508H34.16V25.0836Z" fill="white"/>
</mask>
<g mask="url(#mask1_5_7511)">
<path id="Fill 26" fill-rule="evenodd" clip-rule="evenodd" d="M95.6239 25.0835H34.4213C34.2891 25.0835 34.16 25.2156 34.16 25.3444C34.16 25.4766 34.2921 25.6054 34.4213 25.6054H70.7234C72.8205 25.6054 74.5902 27.3068 74.5902 29.4671C74.5902 31.5615 72.8866 33.3287 70.7234 33.3287H34.4213C34.2891 33.3287 34.16 33.4609 34.16 33.5899C34.16 33.7218 34.2921 33.8508 34.4213 33.8508H95.6207C97.7178 33.8508 99.4875 32.1496 99.4875 29.9891V28.942C99.4907 26.7847 97.721 25.0835 95.6239 25.0835Z" fill="#2B31BA"/>
</g>
</g>
<path id="Fill 29" fill-rule="evenodd" clip-rule="evenodd" d="M66.8568 27.7659H35.9296V27.4389H66.8568C66.9891 27.4389 67.052 27.5049 67.052 27.6339C67.0552 27.6999 66.9891 27.7659 66.8568 27.7659Z" fill="#DEBCA7"/>
<path id="Fill 31" fill-rule="evenodd" clip-rule="evenodd" d="M63.9095 31.5615H35.9296V31.2343H63.9095C64.0418 31.2343 64.1047 31.3005 64.1047 31.4295C64.1047 31.4955 64.0386 31.5615 63.9095 31.5615Z" fill="#DEBCA7"/>
<path id="Fill 33" fill-rule="evenodd" clip-rule="evenodd" d="M70.3298 29.6653H35.9295V29.2721H70.3298C70.3959 29.2721 70.525 29.3383 70.525 29.4671C70.5282 29.5331 70.4622 29.6653 70.3298 29.6653Z" fill="#DEBCA7"/>
<path id="Fill 35" fill-rule="evenodd" clip-rule="evenodd" d="M56.5666 72.7944H47.983C47.983 72.7944 46.607 73.2536 45.4262 75.4769C43.9841 78.2252 44.4438 80.8417 43.5275 82.873C42.9386 84.2473 41.9563 85.3605 40.7094 86.1437C41.6918 86.2756 42.7402 86.3384 43.7889 86.2096C44.6423 86.0147 45.4262 85.6875 46.0812 85.1624C46.2764 85.6215 46.3425 86.0775 46.4086 86.5366C46.4748 86.9958 46.4748 87.5177 46.4086 87.9768C46.4086 87.9768 49.5543 87.2567 50.798 85.4233C52.5676 82.936 51.0593 79.8606 53.4179 75.9989C54.2711 74.8228 55.3197 73.7095 56.5666 72.7944Z" fill="#BFA990"/>
</g>
</g>
</g>
</svg>
